<svg width="204" height="204" viewBox="0 0 204 204" fill="none" xmlns="http://www.w3.org/2000/svg">
<circle cx="102" cy="102" r="102" fill="#23568B"/>
<path d="M47.2 111V110.37L49.96 109.92V88.08L47.2 87.66V87H56.02V87.66L53.26 88.08V109.92L56.02 110.37V111H47.2ZM58.0307 110.4L60.1307 110.1V96.36L58.0307 96.06V95.46H63.1307V98.7C63.8707 97.62 64.7407 96.77 65.7407 96.15C66.7407 95.51 67.8207 95.19 68.9807 95.19C70.4207 95.19 71.5507 95.55 72.3707 96.27C73.2107 96.99 73.6307 98.06 73.6307 99.48V110.1L75.7307 110.4V111H68.8307V110.4L70.6307 110.1V99.54C70.6307 98.5 70.4207 97.7 70.0007 97.14C69.5807 96.56 68.9307 96.27 68.0507 96.27C67.1307 96.27 66.2407 96.61 65.3807 97.29C64.5407 97.95 63.7907 98.77 63.1307 99.75V110.1L64.9307 110.4V111H58.0307V110.4ZM84.7237 111.3C83.3037 111.3 82.0537 110.97 80.9737 110.31C79.8937 109.63 79.0537 108.69 78.4537 107.49C77.8537 106.27 77.5537 104.85 77.5537 103.23C77.5537 101.61 77.8537 100.2 78.4537 99C79.0537 97.78 79.8937 96.84 80.9737 96.18C82.0537 95.52 83.3037 95.19 84.7237 95.19C85.8837 95.19 86.8937 95.5 87.7537 96.12C88.6137 96.72 89.2937 97.55 89.7937 98.61V87.9L87.6937 87.6V87H92.7937V110.1L94.8937 110.4V111H89.7937V107.88C89.2937 108.94 88.6137 109.78 87.7537 110.4C86.8937 111 85.8837 111.3 84.7237 111.3ZM85.0237 110.55C85.9037 110.55 86.6937 110.3 87.3937 109.8C88.1137 109.28 88.6837 108.6 89.1037 107.76C89.5437 106.9 89.7737 105.97 89.7937 104.97V101.52C89.7737 100.52 89.5437 99.6 89.1037 98.76C88.6837 97.9 88.1137 97.22 87.3937 96.72C86.6937 96.2 85.9037 95.94 85.0237 95.94C82.2437 95.94 80.8537 97.87 80.8537 101.73V104.73C80.8537 108.61 82.2437 110.55 85.0237 110.55ZM104.722 111.3C103.242 111.3 101.902 110.97 100.702 110.31C99.5017 109.63 98.5517 108.68 97.8517 107.46C97.1517 106.24 96.8017 104.83 96.8017 103.23C96.8017 101.63 97.1417 100.23 97.8217 99.03C98.5217 97.81 99.4517 96.87 100.612 96.21C101.792 95.53 103.102 95.19 104.542 95.19C105.802 95.19 106.932 95.47 107.932 96.03C108.932 96.59 109.712 97.37 110.272 98.37C110.832 99.35 111.122 100.48 111.142 101.76H100.102V104.73C100.102 106.49 100.492 107.92 101.272 109.02C102.072 110.1 103.222 110.64 104.722 110.64C106.102 110.64 107.322 110.25 108.382 109.47C109.442 108.69 110.092 107.68 110.332 106.44H111.022C110.742 107.92 110.032 109.1 108.892 109.98C107.752 110.86 106.362 111.3 104.722 111.3ZM107.842 101.01C107.842 99.27 107.572 97.98 107.032 97.14C106.492 96.28 105.652 95.85 104.512 95.85C103.172 95.85 102.132 96.32 101.392 97.26C100.652 98.2 100.232 99.45 100.132 101.01H107.842ZM113.138 110.4L115.238 110.1V96.36L113.138 96.06V95.46H118.238V98.7C118.978 97.62 119.848 96.77 120.848 96.15C121.848 95.51 122.928 95.19 124.088 95.19C125.528 95.19 126.658 95.55 127.478 96.27C128.318 96.99 128.738 98.06 128.738 99.48V110.1L130.838 110.4V111H123.938V110.4L125.738 110.1V99.54C125.738 98.5 125.528 97.7 125.108 97.14C124.688 96.56 124.038 96.27 123.158 96.27C122.238 96.27 121.348 96.61 120.488 97.29C119.648 97.95 118.898 98.77 118.238 99.75V110.1L120.038 110.4V111H113.138V110.4ZM138.391 111.3C137.071 111.3 136.011 110.97 135.211 110.31C134.431 109.65 134.041 108.6 134.041 107.16V96.36L131.911 96.06V95.46H134.041V92.97L137.041 92.22V95.46H140.941V96.06L137.041 96.36V107.1C137.041 109.22 137.801 110.28 139.321 110.28C139.641 110.28 139.941 110.23 140.221 110.13C140.521 110.03 140.751 109.93 140.911 109.83C141.091 109.73 141.201 109.66 141.241 109.62L141.631 110.1C140.731 110.9 139.651 111.3 138.391 111.3ZM147.531 111.3C146.251 111.3 145.201 110.97 144.381 110.31C143.561 109.63 143.151 108.63 143.151 107.31C143.151 105.43 143.941 104.1 145.521 103.32C147.101 102.52 148.931 102.12 151.011 102.12H153.021V99.81C153.021 98.77 152.901 97.97 152.661 97.41C152.441 96.83 152.091 96.43 151.611 96.21C151.131 95.97 150.481 95.85 149.661 95.85C148.721 95.85 148.021 96.04 147.561 96.42C147.101 96.78 146.871 97.27 146.871 97.89C146.871 98.47 147.151 98.85 147.711 99.03C147.711 99.53 147.521 99.97 147.141 100.35C146.761 100.73 146.311 100.92 145.791 100.92C145.231 100.92 144.781 100.77 144.441 100.47C144.101 100.15 143.931 99.67 143.931 99.03C143.931 97.87 144.511 96.94 145.671 96.24C146.831 95.54 148.281 95.19 150.021 95.19C154.021 95.19 156.021 96.93 156.021 100.41V108.99C156.021 109.43 156.111 109.77 156.291 110.01C156.491 110.23 156.771 110.34 157.131 110.34C157.471 110.34 157.741 110.23 157.941 110.01C158.141 109.77 158.241 109.45 158.241 109.05H158.871C158.871 109.75 158.641 110.3 158.181 110.7C157.741 111.1 157.121 111.3 156.321 111.3C155.401 111.3 154.621 111.04 153.981 110.52C153.361 109.98 153.041 109.15 153.021 108.03C152.541 109.05 151.801 109.85 150.801 110.43C149.821 111.01 148.731 111.3 147.531 111.3ZM149.181 109.98C149.721 109.98 150.271 109.82 150.831 109.5C151.411 109.18 151.901 108.72 152.301 108.12C152.701 107.5 152.941 106.76 153.021 105.9V102.78H151.011C149.371 102.78 148.141 103.15 147.321 103.89C146.521 104.61 146.121 105.63 146.121 106.95C146.121 108.05 146.381 108.83 146.901 109.29C147.421 109.75 148.181 109.98 149.181 109.98Z" fill="white"/>
<line x1="79" y1="120.5" x2="119" y2="120.5" stroke="white" stroke-width="3"/>
<circle cx="123.5" cy="120.5" r="1.5" fill="white"/>
</svg>
